HIERARCHY
ROOT joint_Root
{
	OFFSET 0.0 0.0 0.0
	CHANNELS 6 Xposition Yposition Zposition Zrotation Xrotation Yrotation 
	JOINT Hips
	{
		OFFSET 4.5925 91.4895 -427.239
		CHANNELS 6 Xposition Yposition Zposition Zrotation Xrotation Yrotation 
		JOINT Spine
		{
			OFFSET 15.7357 0.0 0.0
			CHANNELS 6 Xposition Yposition Zposition Zrotation Xrotation Yrotation 
			JOINT Chest
			{
				OFFSET 8.98455 -0.406207 0.0
				CHANNELS 6 Xposition Yposition Zposition Zrotation Xrotation Yrotation 
				JOINT Neck
				{
					OFFSET 16.3773 0.0 0.0
					CHANNELS 6 Xposition Yposition Zposition Zrotation Xrotation Yrotation 
					JOINT Head
					{
						OFFSET 6.45672 0.0 0.0
						CHANNELS 6 Xposition Yposition Zposition Zrotation Xrotation Yrotation 
						End Site
						{
							OFFSET 0.0 0.0 0.0
						}
					}
				}
				JOINT Shoulder_L
				{
					OFFSET 12.9942 -0.242716 4.98039
					CHANNELS 6 Xposition Yposition Zposition Zrotation Xrotation Yrotation 
					JOINT UpperArm_L
					{
						OFFSET 5.34809 0.0 0.0
						CHANNELS 6 Xposition Yposition Zposition Zrotation Xrotation Yrotation 
						JOINT LowerArm_L
						{
							OFFSET 24.3286 1.87007e-05 0.0
							CHANNELS 6 Xposition Yposition Zposition Zrotation Xrotation Yrotation 
							JOINT Hand_L
							{
								OFFSET 22.2916 0.0 0.0
								CHANNELS 6 Xposition Yposition Zposition Zrotation Xrotation Yrotation 
								End Site
								{
									OFFSET 0.0 0.0 0.0
								}
							}
						}
					}
				}
				JOINT Shoulder_R
				{
					OFFSET 12.9945 -0.242716 -4.98039
					CHANNELS 6 Xposition Yposition Zposition Zrotation Xrotation Yrotation 
					JOINT UpperArm_R
					{
						OFFSET -5.34813 0.0 0.0
						CHANNELS 6 Xposition Yposition Zposition Zrotation Xrotation Yrotation 
						JOINT LowerArm_R
						{
							OFFSET -24.3289 0.000322201 0.0
							CHANNELS 6 Xposition Yposition Zposition Zrotation Xrotation Yrotation 
							JOINT Hand_R
							{
								OFFSET -22.2915 -0.000108084 0.0
								CHANNELS 6 Xposition Yposition Zposition Zrotation Xrotation Yrotation 
								End Site
								{
									OFFSET 0.0 0.0 0.0
								}
							}
						}
					}
				}
			}
		}
		JOINT UpperLeg_L
		{
			OFFSET -2.19248 -6.46944 0.0
			CHANNELS 6 Xposition Yposition Zposition Zrotation Xrotation Yrotation 
			JOINT LowerLeg_L
			{
				OFFSET 39.0811 0.0 -1.23785e-05
				CHANNELS 6 Xposition Yposition Zposition Zrotation Xrotation Yrotation 
				JOINT Foot_L
				{
					OFFSET 40.9854 0.0 -1.26872e-05
					CHANNELS 6 Xposition Yposition Zposition Zrotation Xrotation Yrotation 
					JOINT Toes_L
					{
						OFFSET 11.7543 0.0 0.0
						CHANNELS 6 Xposition Yposition Zposition Zrotation Xrotation Yrotation 
						End Site
						{
							OFFSET 0.0 0.0 0.0
						}
					}
				}
			}
		}
		JOINT UpperLeg_R
		{
			OFFSET -2.19251 6.46944 0.0
			CHANNELS 6 Xposition Yposition Zposition Zrotation Xrotation Yrotation 
			JOINT LowerLeg_R
			{
				OFFSET -39.0811 -0.00228153 -0.0401928
				CHANNELS 6 Xposition Yposition Zposition Zrotation Xrotation Yrotation 
				JOINT Foot_R
				{
					OFFSET -40.9854 0.0 0.0
					CHANNELS 6 Xposition Yposition Zposition Zrotation Xrotation Yrotation 
					JOINT Toes_R
					{
						OFFSET -11.7543 0.0 0.0
						CHANNELS 6 Xposition Yposition Zposition Zrotation Xrotation Yrotation 
						End Site
						{
							OFFSET 0.0 0.0 0.0
						}
					}
				}
			}
		}
	}
}
MOTION
Frames:	9
Frame Time:	0.0333333
0.000000 0.000000 0.000000 0.000000 0.000000 -0.000000 -6.176540 90.277400 0.726271 84.802400 -5.921030 8.715200 15.735700 0.000005 -0.000001 80.979800 82.436100 -78.345100 8.984550 -0.406207 -0.000000 7.239550 -2.375200 5.414880 16.377300 -0.000001 -0.000001 6.355180 -2.229290 -0.322943 6.456720 -0.000001 -0.000000 -2.409270 -1.105060 1.834990 12.994200 -0.242716 4.980390 -91.759400 6.777260 -75.410600 5.348090 -0.000007 -0.000001 -65.302900 35.044700 -12.335300 24.328600 0.000019 0.000005 11.088900 26.946600 -23.388300 22.291600 -0.000001 0.000005 7.442660 5.310300 -0.218539 12.994500 -0.242716 -4.980390 87.919800 12.599400 -80.546000 -5.348130 -0.000001 -0.000004 -59.432200 35.001100 -9.655650 -24.328900 0.000322 -0.000009 2.076130 6.287380 -18.323900 -22.291500 -0.000108 -0.000004 14.046800 5.415900 -3.461580 -2.192480 -6.469440 -0.000000 -165.911000 -12.250300 -0.382109 39.081100 -0.000007 -0.000012 -0.288722 0.437821 33.403500 40.985400 -0.000006 -0.000013 -3.257790 6.685080 -72.652200 11.754300 -0.000000 0.000003 -0.000128 -0.001266 -16.625900 -2.192510 6.469440 -0.000001 -178.377000 22.453700 -176.819000 -39.081100 -0.002282 -0.040193 -0.207745 0.394974 28.117700 -40.985400 0.000008 0.000006 7.329420 14.928000 -72.840300 -11.754300 -0.000006 -0.000006 -0.001000 -0.015411 -17.199900
0.000000 0.000000 0.000000 0.000000 0.000000 -0.000000 -6.229950 90.282300 0.693976 84.828700 -5.923580 8.750830 15.735700 0.000005 -0.000001 80.725200 82.450900 -78.063700 8.984550 -0.406207 -0.000000 7.202150 -2.437680 5.471470 16.377300 -0.000001 -0.000001 6.835800 -2.395820 -0.208947 6.456720 -0.000001 -0.000000 -1.785090 -1.315000 2.184950 12.994200 -0.242716 4.980390 -91.761000 6.689130 -75.214600 5.348090 -0.000007 -0.000001 -65.240000 35.335500 -12.996300 24.328600 0.000019 0.000005 11.596600 27.089000 -24.257900 22.291600 -0.000001 0.000005 7.149660 5.316970 -0.408750 12.994500 -0.242716 -4.980390 87.902800 12.543800 -80.429500 -5.348130 -0.000001 -0.000004 -59.672100 35.166500 -9.830310 -24.328900 0.000322 -0.000009 2.037150 6.015230 -18.757900 -22.291500 -0.000108 -0.000004 13.960300 5.416540 -3.482970 -2.192480 -6.469440 -0.000000 -165.899000 -12.246100 -0.347429 39.081100 -0.000007 -0.000012 -0.288249 0.437818 33.360500 40.985400 -0.000006 -0.000013 -3.302000 6.666680 -72.600600 11.754300 -0.000000 0.000003 -0.000135 -0.001327 -16.628100 -2.192510 6.469440 -0.000001 -178.389000 22.539800 -176.786000 -39.081100 -0.002282 -0.040193 -0.207089 0.393972 28.104000 -40.985400 0.000008 0.000006 7.391390 14.978400 -72.839800 -11.754300 -0.000006 -0.000006 -0.000937 -0.014514 -17.163400
0.000000 0.000000 0.000000 0.000000 0.000000 -0.000000 -6.288720 90.281200 0.663915 84.884900 -5.861760 8.835340 15.735700 0.000005 -0.000001 80.661800 82.445400 -77.980800 8.984550 -0.406207 -0.000000 7.211300 -2.455740 5.511740 16.377300 -0.000001 -0.000001 7.288090 -2.581380 -0.035099 6.456720 -0.000001 -0.000000 -1.236750 -1.549470 2.488430 12.994200 -0.242716 4.980390 -91.761200 6.631260 -75.090300 5.348090 -0.000007 -0.000001 -64.668200 35.687500 -14.054700 24.328600 0.000019 0.000005 12.232400 26.892300 -25.608800 22.291600 -0.000001 0.000005 7.441980 5.314160 -0.328649 12.994500 -0.242716 -4.980390 87.893300 12.454500 -80.320400 -5.348130 -0.000001 -0.000004 -60.007100 35.281300 -9.898230 -24.328900 0.000322 -0.000009 2.036780 5.830740 -19.302800 -22.291500 -0.000108 -0.000004 14.061600 5.417860 -3.526860 -2.192480 -6.469440 -0.000000 -165.908000 -12.226500 -0.299592 39.081100 -0.000007 -0.000012 -0.284698 0.432783 33.338700 40.985400 -0.000006 -0.000013 -3.333340 6.691340 -72.545600 11.754300 -0.000000 0.000003 -0.000125 -0.001248 -16.625200 -2.192510 6.469440 -0.000001 -178.452000 22.615600 -176.728000 -39.081100 -0.002282 -0.040193 -0.207650 0.394446 28.138900 -40.985400 0.000008 0.000006 7.447220 15.004000 -72.865900 -11.754300 -0.000006 -0.000006 -0.000862 -0.013433 -17.119500
0.000000 0.000000 0.000000 0.000000 0.000000 -0.000000 -6.365470 90.286900 0.597445 84.927200 -5.714290 8.941210 15.735700 0.000005 -0.000001 80.618000 82.413400 -77.935600 8.984550 -0.406207 -0.000000 7.273170 -2.475930 5.517250 16.377300 -0.000001 -0.000001 7.685100 -2.823290 0.154767 6.456720 -0.000001 -0.000000 -0.743110 -1.798510 2.907020 12.994200 -0.242716 4.980390 -91.767200 6.605420 -74.986000 5.348090 -0.000007 -0.000001 -63.224300 35.942700 -16.032200 24.328600 0.000019 0.000005 13.275600 27.398300 -27.144800 22.291600 -0.000001 0.000005 8.018860 5.317520 -0.424521 12.994500 -0.242716 -4.980390 87.902500 12.370900 -80.298900 -5.348130 -0.000001 -0.000004 -60.389800 35.344100 -9.914340 -24.328900 0.000322 -0.000009 1.996140 5.523640 -19.914500 -22.291500 -0.000108 -0.000004 14.023100 5.421540 -3.650940 -2.192480 -6.469440 -0.000000 -165.917000 -12.039000 -0.263652 39.081100 -0.000007 -0.000012 -0.281987 0.429452 33.290200 40.985400 -0.000006 -0.000013 -3.379150 6.724510 -72.460200 11.754300 -0.000000 0.000003 -0.000115 -0.001161 -16.622000 -2.192510 6.469440 -0.000001 -178.485000 22.765800 -176.627000 -39.081100 -0.002282 -0.040193 -0.204715 0.389340 28.115400 -40.985400 0.000008 0.000006 7.493770 14.950700 -72.857500 -11.754300 -0.000006 -0.000006 -0.001057 -0.016220 -17.232800
0.000000 0.000000 0.000000 0.000000 0.000000 -0.000000 -6.443530 90.283500 0.516411 84.991700 -5.412260 9.107310 15.735700 0.000005 -0.000001 80.641300 82.347300 -77.986300 8.984550 -0.406207 -0.000000 7.404340 -2.487850 5.466240 16.377300 -0.000001 -0.000001 8.021470 -3.100120 0.334499 6.456720 -0.000001 -0.000000 -0.206767 -2.142260 3.542510 12.994200 -0.242716 4.980390 -91.740700 6.495920 -74.964100 5.348090 -0.000007 -0.000001 -61.286500 35.313900 -18.828300 24.328600 0.000019 0.000005 14.812700 28.516000 -28.983200 22.291600 -0.000001 0.000005 8.350880 5.319650 -0.485781 12.994500 -0.242716 -4.980390 87.918300 12.281200 -80.302900 -5.348130 -0.000001 -0.000004 -60.713500 35.601600 -10.022200 -24.328900 0.000322 -0.000009 1.961390 5.304210 -20.337400 -22.291500 -0.000108 -0.000004 14.006900 5.425500 -3.784980 -2.192480 -6.469440 -0.000000 -165.947000 -11.798600 -0.256243 39.081100 -0.000007 -0.000012 -0.282728 0.430445 33.298500 40.985400 -0.000006 -0.000013 -3.405860 6.801380 -72.368900 11.754300 -0.000000 0.000003 -0.000124 -0.001238 -16.624800 -2.192510 6.469440 -0.000001 -178.566000 23.021100 -176.543000 -39.081100 -0.002282 -0.040193 -0.202925 0.384928 28.181100 -40.985400 0.000008 0.000006 7.560360 14.899000 -72.871700 -11.754300 -0.000006 -0.000006 -0.000908 -0.014092 -17.146300
0.000000 0.000000 0.000000 0.000000 0.000000 -0.000000 -6.544830 90.288300 0.404804 85.037100 -4.971310 9.274710 15.735700 0.000005 -0.000001 80.542900 82.312400 -77.917400 8.984550 -0.406207 -0.000000 7.469080 -2.523390 5.411040 16.377300 -0.000001 -0.000001 8.531200 -3.480090 0.479076 6.456720 -0.000001 -0.000000 0.386751 -2.630640 4.241360 12.994200 -0.242716 4.980390 -91.713900 6.364010 -74.893300 5.348090 -0.000007 -0.000001 -58.936600 33.905100 -22.088100 24.328600 0.000019 0.000005 15.874900 28.196400 -31.042700 22.291600 -0.000001 0.000005 8.577540 5.319090 -0.469516 12.994500 -0.242716 -4.980390 87.935700 12.124200 -80.262200 -5.348130 -0.000001 -0.000004 -61.092800 35.986800 -10.089400 -24.328900 0.000322 -0.000009 1.970580 5.261760 -20.575400 -22.291500 -0.000108 -0.000004 14.018100 5.426300 -3.812350 -2.192480 -6.469440 -0.000000 -165.951000 -11.493200 -0.300709 39.081100 -0.000007 -0.000012 -0.282410 0.430141 33.287500 40.985400 -0.000006 -0.000013 -3.421970 6.978150 -72.226700 11.754300 -0.000000 0.000003 -0.000114 -0.001154 -16.621700 -2.192510 6.469440 -0.000001 -178.633000 23.407000 -176.415000 -39.081100 -0.002282 -0.040193 -0.202301 0.383940 28.170200 -40.985400 0.000008 0.000006 7.620960 14.809500 -72.853600 -11.754300 -0.000006 -0.000006 -0.000897 -0.013930 -17.139700
0.000000 0.000000 0.000000 0.000000 0.000000 -0.000000 -6.649320 90.292000 0.274591 85.117600 -4.520580 9.383200 15.735700 0.000005 -0.000001 80.452300 82.328300 -77.872500 8.984550 -0.406207 -0.000000 7.433050 -2.542820 5.320070 16.377300 -0.000001 -0.000001 9.222240 -3.897270 0.631145 6.456720 -0.000001 -0.000000 1.069290 -3.210050 4.891300 12.994200 -0.242716 4.980390 -91.666000 6.140130 -74.787900 5.348090 -0.000007 -0.000001 -56.712800 31.472000 -25.488200 24.328600 0.000019 0.000005 16.672100 26.941200 -33.464600 22.291600 -0.000001 0.000005 8.927580 5.317610 -0.427279 12.994500 -0.242716 -4.980390 87.943800 11.975400 -80.183000 -5.348130 -0.000001 -0.000004 -61.400600 36.382300 -10.168500 -24.328900 0.000322 -0.000009 1.972640 5.255930 -20.616000 -22.291500 -0.000108 -0.000004 13.970500 5.427980 -3.869940 -2.192480 -6.469440 -0.000000 -165.990000 -11.256000 -0.424213 39.081100 -0.000007 -0.000012 -0.279404 0.425746 33.276200 40.985400 -0.000006 -0.000013 -3.429090 7.200340 -72.059300 11.754300 -0.000000 0.000003 -0.000135 -0.001327 -16.628100 -2.192510 6.469440 -0.000001 -178.675000 23.735500 -176.411000 -39.081100 -0.002282 -0.040193 -0.198900 0.376997 28.207600 -40.985400 0.000008 0.000006 7.685230 14.673400 -72.836300 -11.754300 -0.000006 -0.000006 -0.000796 -0.012470 -17.080400
0.000000 0.000000 0.000000 0.000000 0.000000 -0.000000 -6.779000 90.298500 0.169553 85.206600 -4.045750 9.560770 15.735700 0.000005 -0.000001 80.289900 82.338500 -77.757700 8.984550 -0.406207 -0.000000 7.405520 -2.582640 5.226970 16.377300 -0.000001 -0.000001 10.070800 -4.391370 0.837131 6.456720 -0.000001 -0.000000 1.847820 -3.855860 5.297260 12.994200 -0.242716 4.980390 -91.582300 5.810790 -74.738900 5.348090 -0.000007 -0.000001 -54.477000 28.450600 -29.058700 24.328600 0.000019 0.000005 17.642200 25.523200 -36.431100 22.291600 -0.000001 0.000005 9.042820 5.323690 -0.602316 12.994500 -0.242716 -4.980390 87.960000 11.766400 -80.091700 -5.348130 -0.000001 -0.000004 -61.741300 36.602600 -10.280700 -24.328900 0.000322 -0.000009 2.041190 5.489830 -20.442100 -22.291500 -0.000108 -0.000004 13.978400 5.428390 -3.883700 -2.192480 -6.469440 -0.000000 -166.016000 -10.975000 -0.437782 39.081100 -0.000007 -0.000012 -0.278640 0.425553 33.216100 40.985400 -0.000006 -0.000013 -3.457000 7.410530 -71.887100 11.754300 -0.000000 0.000003 -0.000117 -0.001179 -16.622600 -2.192510 6.469440 -0.000001 -178.793000 24.138700 -176.267000 -39.081100 -0.002282 -0.040193 -0.205229 0.388903 28.201000 -40.985400 0.000008 0.000006 7.750480 14.562900 -72.830400 -11.754300 -0.000006 -0.000006 -0.001033 -0.015870 -17.218500
0.000000 0.000000 0.000000 0.000000 0.000000 -0.000000 -6.909510 90.302300 0.046618 85.244000 -3.756230 9.750200 15.735700 0.000005 -0.000001 80.631900 82.350400 -78.125800 8.984550 -0.406207 -0.000000 7.393900 -2.489100 5.168450 16.377300 -0.000001 -0.000001 10.984200 -4.834310 0.986416 6.456720 -0.000001 -0.000000 2.652260 -4.483270 5.666740 12.994200 -0.242716 4.980390 -91.473000 5.383270 -74.672300 5.348090 -0.000007 -0.000001 -52.377400 24.907100 -32.810300 24.328600 0.000019 0.000005 18.721100 23.960300 -39.845200 22.291600 -0.000001 0.000005 9.239580 5.322790 -0.576159 12.994500 -0.242716 -4.980390 87.967000 11.581800 -79.973200 -5.348130 -0.000001 -0.000004 -61.953800 36.632300 -10.420600 -24.328900 0.000322 -0.000009 2.050620 5.564610 -20.276200 -22.291500 -0.000108 -0.000004 13.937100 5.427440 -3.851510 -2.192480 -6.469440 -0.000000 -165.966000 -10.802000 -0.406057 39.081100 -0.000007 -0.000012 -0.274546 0.419756 33.187700 40.985400 -0.000006 -0.000013 -3.504480 7.562300 -71.739000 11.754300 -0.000000 0.000003 -0.000119 -0.001194 -16.623200 -2.192510 6.469440 -0.000001 -178.835000 24.474000 -176.120000 -39.081100 -0.002282 -0.040193 -0.197288 0.374277 28.189300 -40.985400 0.000008 0.000006 7.861300 14.542300 -72.814600 -11.754300 -0.000006 -0.000006 -0.000883 -0.013737 -17.131800
